<svg width="800" height="800" viewBox="0 0 800 800" fill="none" xmlns="http://www.w3.org/2000/svg">
<g clip-path="url(#clip0_1_2)">
<path d="M601.713 306.99C655.995 306.99 700 260.654 700 203.495C700 146.336 655.995 100 601.713 100C547.431 100 503.426 146.336 503.426 203.495C503.426 260.654 547.431 306.99 601.713 306.99Z" fill="#1D6FA3"/>
<path d="M678.801 609.696C712.527 565.051 705.139 499.775 662.741 464.6L259.315 128.41C216.916 92.8974 154.925 100.676 121.52 145.321C87.7944 189.966 95.182 255.242 137.58 290.417L541.006 626.607C583.405 662.119 645.075 654.34 678.801 609.696Z" fill="url(#paint0_linear_1_2)"/>
<path d="M263.49 131.454C246.146 115.558 223.662 105.75 198.929 105.75C144.325 106.088 100.642 152.424 100.642 209.245V596.505C100.642 653.664 144.647 700 198.929 700C253.212 700 297.216 653.664 297.216 596.505V423.675C297.216 320.18 380.407 229.2 469.058 302.931L263.49 131.454Z" fill="url(#paint1_linear_1_2)"/>
</g>
<defs>
<linearGradient id="paint0_linear_1_2" x1="125.013" y1="148.209" x2="696.174" y2="577.717" gradientUnits="userSpaceOnUse">
<stop offset="0.2537" stop-color="#65FDF0"/>
<stop offset="0.3447" stop-color="#61F6EC"/>
<stop offset="0.4773" stop-color="#58E3E2"/>
<stop offset="0.6354" stop-color="#47C3D0"/>
<stop offset="0.8115" stop-color="#3197B8"/>
<stop offset="0.9497" stop-color="#1D6FA3"/>
</linearGradient>
<linearGradient id="paint1_linear_1_2" x1="47.685" y1="548.731" x2="400.227" y2="241.985" gradientUnits="userSpaceOnUse">
<stop stop-color="#65FDF0"/>
<stop offset="0.1163" stop-color="#61F6EC"/>
<stop offset="0.2859" stop-color="#58E3E2"/>
<stop offset="0.488" stop-color="#47C3D0"/>
<stop offset="0.7132" stop-color="#3197B8"/>
<stop offset="0.8899" stop-color="#1D6FA3"/>
</linearGradient>
<clipPath id="clip0_1_2">
<rect width="600" height="600" fill="white" transform="translate(100 100)"/>
</clipPath>
</defs>
</svg>
